<svg id="black-and-white-credit-cards" xmlns="http://www.w3.org/2000/svg" width="63.752" height="67.034" viewBox="0 0 63.752 67.034">
  <g id="Group_370" data-name="Group 370">
    <path id="Path_1321" data-name="Path 1321" d="M61.136,31.427,31.467,1.754a5.982,5.982,0,0,0-8.464,0L6.754,18a6.075,6.075,0,0,0,0,8.539l2.693,2.767h6.212l-5.8-5.873a1.663,1.663,0,0,1-.466-1.164,1.621,1.621,0,0,1,.466-1.145l2.145-2.079L22.2,29.306h9.781L16.9,14.144,26.108,4.9a1.619,1.619,0,0,1,1.127-.483,1.572,1.572,0,0,1,1.127.456L58.033,34.537a1.582,1.582,0,0,1,.469,1.125,1.679,1.679,0,0,1-.513,1.127L56.307,38.43v6.212L61.1,39.9A5.99,5.99,0,0,0,61.136,31.427Z" transform="translate(0.881)" fill="#9f6ce3"/>
    <path id="Path_1322" data-name="Path 1322" d="M49.188,21.328H7.223A6.1,6.1,0,0,0,1.091,27.3V43.169H55.1V27.3A5.908,5.908,0,0,0,49.188,21.328ZM15.757,37.764a4.336,4.336,0,0,1-3.015-1.219,4.355,4.355,0,1,1,0-6.277,4.354,4.354,0,1,1,3.015,7.5Z" transform="translate(-1.091 10.76)" fill="#9f6ce3"/>
    <path id="Path_1323" data-name="Path 1323" d="M1.091,40.684a6.127,6.127,0,0,0,6.132,6H49.188a5.939,5.939,0,0,0,5.913-6v-.352H1.091Z" transform="translate(-1.091 20.347)" fill="#9f6ce3"/>
  </g>
</svg>
