<svg id="business-and-finance" xmlns="http://www.w3.org/2000/svg" width="81.533" height="70.662" viewBox="0 0 81.533 70.662">
  <path id="Path_1324" data-name="Path 1324" d="M192.718,67.742a2.718,2.718,0,0,0,0,5.436h5.436V75.9a2.718,2.718,0,0,0,5.436,0V73.178h5.436a2.718,2.718,0,0,0,2.718-2.718V62.307a2.718,2.718,0,0,0-2.718-2.718h-5.436V56.871h5.436a2.718,2.718,0,0,0,0-5.436h-5.436V48.718a2.718,2.718,0,0,0-5.436,0v2.718h-5.436A2.718,2.718,0,0,0,190,54.153v8.153a2.718,2.718,0,0,0,2.718,2.718h5.436v2.718Zm10.871-2.718h2.718v2.718h-2.718Zm-8.153-5.436V56.871h2.718v2.718Z" transform="translate(-135.645 -46)" fill="#9f6ce3"/>
  <path id="Path_1325" data-name="Path 1325" d="M108.815,132.355H103.38V107.9a2.718,2.718,0,0,0-2.718-2.718H89.791a2.718,2.718,0,0,0-2.718,2.718v24.46H78.92V91.589A2.718,2.718,0,0,0,76.2,88.871H65.331a2.718,2.718,0,0,0-2.718,2.718v40.767H54.46V80.718A2.718,2.718,0,0,0,51.742,78H40.871a2.718,2.718,0,0,0-2.718,2.718v51.638H32.718a2.718,2.718,0,0,0,0,5.436h76.1a2.718,2.718,0,0,0,0-5.436Zm-59.791,0H43.589V83.436h5.436Zm24.46,0H68.049V94.307h5.436Zm24.46,0H92.509V110.613h5.436Z" transform="translate(-30 -67.129)" fill="#9f6ce3"/>
</svg>
