<svg id="Consult-Talk" xmlns="http://www.w3.org/2000/svg" width="93.322" height="93.819" viewBox="0 0 93.322 93.819">
  <rect id="Rectangle_11" data-name="Rectangle 11" width="3.111" height="3.111" transform="translate(21.775 36.271)" fill="#fff"/>
  <rect id="Rectangle_12" data-name="Rectangle 12" width="3.111" height="3.111" transform="translate(37.329 36.271)" fill="#fff"/>
  <path id="Path_194" data-name="Path 194" d="M93.988,55.076l-6.077-.868a21.774,21.774,0,0,0-1.022-2.489l3.677-4.9a1.555,1.555,0,0,0-.145-2.033l-6.6-6.6a1.538,1.538,0,0,0-.943-.44V22.772a12.443,12.443,0,0,0,4.666-9.707A12.314,12.314,0,0,0,80.433,1.829a1.555,1.555,0,0,0-2.22,1.406v8.71L75.1,12.983l-3.111-1.037V3.235a1.555,1.555,0,0,0-2.22-1.4,12.314,12.314,0,0,0-7.113,11.23,12.443,12.443,0,0,0,4.666,9.707V33.285H62.659a1.555,1.555,0,0,0-1.54,1.335l-1.006,7.044,3.08.44.815-5.708h6.635l.815,5.708a1.555,1.555,0,0,0,1.1,1.272A18.569,18.569,0,0,1,76.3,44.911a1.555,1.555,0,0,0,1.681-.12l4.605-3.453,4.691,4.691-3.461,4.605a1.555,1.555,0,0,0-.12,1.681,18.57,18.57,0,0,1,1.535,3.733,1.555,1.555,0,0,0,1.272,1.1l5.708.815V64.6l-5.708.815a1.555,1.555,0,0,0-1.272,1.1,18.569,18.569,0,0,1-1.535,3.733,1.555,1.555,0,0,0,.12,1.681l3.453,4.605-4.691,4.691-4.6-3.465a1.555,1.555,0,0,0-1.681-.12,18.57,18.57,0,0,1-3.733,1.535,1.555,1.555,0,0,0-1.1,1.272l-.81,5.711H64.215V79.59a17.264,17.264,0,0,0-.7-4.854A14.169,14.169,0,1,0,53.57,63.751c-.037-.016-.073-.034-.11-.048l-12.575-5.03V56.283A17.248,17.248,0,0,0,46.3,51.949h3.921a4.666,4.666,0,0,0,4.666-4.666v-3.4a4.666,4.666,0,0,0,3.111-4.38V34.84a4.666,4.666,0,0,0-3.111-4.38V28.619a21.775,21.775,0,1,0-43.55,0V30.46a4.666,4.666,0,0,0-3.111,4.38v4.666a4.666,4.666,0,0,0,4.666,4.666H16c.1,0,.2-.016.294-.022a17.145,17.145,0,0,0,9.038,12.132v2.391L12.755,63.7A17.03,17.03,0,0,0,2,79.59V93.944A1.555,1.555,0,0,0,3.555,95.5h59.1a1.555,1.555,0,0,0,1.555-1.555V89.278h7.777a1.555,1.555,0,0,0,1.54-1.335l.868-6.077a21.774,21.774,0,0,0,2.489-1.022l4.9,3.677a1.555,1.555,0,0,0,2.033-.145l6.6-6.6a1.555,1.555,0,0,0,.145-2.033l-3.677-4.9a21.775,21.775,0,0,0,1.022-2.489l6.077-.868a1.555,1.555,0,0,0,1.333-1.538V56.615a1.555,1.555,0,0,0-1.335-1.54ZM76.879,41.718c-.073-.036-.156-.059-.229-.093V22.4h-3.1V34.731l-.016-.112a1.555,1.555,0,0,0-1.54-1.335H70.436V21.993a1.555,1.555,0,0,0-.667-1.277A9.332,9.332,0,0,1,68.881,6.1v6.965a1.555,1.555,0,0,0,1.064,1.476L74.611,16.1a1.555,1.555,0,0,0,.983,0l4.666-1.555a1.555,1.555,0,0,0,1.064-1.476V6.1a9.332,9.332,0,0,1-.888,14.62,1.555,1.555,0,0,0-.667,1.272V39.558ZM56.438,61.282a10.965,10.965,0,1,1,5.184,9.24,16.978,16.978,0,0,0-4.061-4.475,10.632,10.632,0,0,1-1.123-4.766ZM50.216,48.839H48.328a16.954,16.954,0,0,0,1.594-4.688c.1,0,.194.022.294.022h1.555v3.111A1.555,1.555,0,0,1,50.216,48.839ZM47.106,31.73a4.689,4.689,0,0,1-3.733-1.866l-2.8-3.733a1.555,1.555,0,0,0-1.048-.61,1.573,1.573,0,0,0-1.168.328l-5.22,4.17a7.8,7.8,0,0,1-4.851,1.711H19.109V30.174a14,14,0,0,1,28,0Zm7.777,7.777a1.555,1.555,0,0,1-1.555,1.555H50.216V33.285h3.111a1.555,1.555,0,0,1,1.555,1.555ZM33.107,9.954A18.685,18.685,0,0,1,51.772,28.619v1.555H50.216a17.109,17.109,0,0,0-34.218,0H14.443V28.619A18.685,18.685,0,0,1,33.107,9.954ZM12.888,41.062a1.555,1.555,0,0,1-1.555-1.555V34.84a1.555,1.555,0,0,1,1.555-1.555H16v7.777Zm6.221,0V34.84h9.177a10.925,10.925,0,0,0,6.8-2.386l3.968-3.175,1.831,2.45a7.816,7.816,0,0,0,6.221,3.111v6.221a13.916,13.916,0,0,1-2.367,7.777H33.107v3.111h8.778A13.984,13.984,0,0,1,19.109,41.062Zm14,17.109a17.056,17.056,0,0,0,4.666-.663v2.218a4.666,4.666,0,1,1-9.332,0V57.508a17.056,17.056,0,0,0,4.666.663Zm28,34.218H51.772V75.28H48.661V92.389H17.554V75.28H14.443V92.389H5.111V79.59a13.933,13.933,0,0,1,8.8-13l11.763-4.7a7.727,7.727,0,0,0,14.866,0l11.763,4.7a13.933,13.933,0,0,1,8.8,13Z" transform="translate(-2 -1.68)" fill="#fff"/>
  <rect id="Rectangle_13" data-name="Rectangle 13" width="3.111" height="3.111" transform="translate(63.77 37.826)" fill="#fff"/>
  <rect id="Rectangle_14" data-name="Rectangle 14" width="3.111" height="3.111" transform="translate(63.77 78.266)" fill="#fff"/>
  <rect id="Rectangle_15" data-name="Rectangle 15" width="3.111" height="3.111" transform="translate(77.422 73.899) rotate(-45)" fill="#fff"/>
  <rect id="Rectangle_16" data-name="Rectangle 16" width="3.111" height="3.111" transform="translate(83.99 58.046)" fill="#fff"/>
  <rect id="Rectangle_17" data-name="Rectangle 17" width="3.111" height="3.111" transform="translate(77.423 45.304) rotate(-45)" fill="#fff"/>
</svg>
