<svg id="fraud_1_" data-name="fraud (1)" xmlns="http://www.w3.org/2000/svg" width="141.4" height="141.4" viewBox="0 0 141.4 141.4">
  <path id="Path_1832" data-name="Path 1832" d="M112,440h22.806v4.561H112Zm0,0" transform="translate(-80.071 -314.565)"/>
  <path id="Path_1833" data-name="Path 1833" d="M134.558,38.771H86.664V11.4A11.417,11.417,0,0,0,75.261,0H11.4A11.417,11.417,0,0,0,0,11.4V130a11.417,11.417,0,0,0,11.4,11.4H75.261a11.417,11.417,0,0,0,11.4-11.4V88.945h11.4v18.532l22.384-18.532h14.106A6.851,6.851,0,0,0,141.4,82.1V45.613A6.851,6.851,0,0,0,134.558,38.771ZM11.4,4.561H75.261A6.851,6.851,0,0,1,82.1,11.4v6.842H4.561V11.4A6.851,6.851,0,0,1,11.4,4.561ZM75.261,136.839H11.4A6.851,6.851,0,0,1,4.561,130v-9.123H82.1V130A6.851,6.851,0,0,1,75.261,136.839ZM82.1,116.313H4.561V22.806H82.1V38.771H79.823a6.851,6.851,0,0,0-6.842,6.842V82.1a6.851,6.851,0,0,0,6.842,6.842H82.1ZM136.839,82.1a2.284,2.284,0,0,1-2.281,2.281h-15.75l-16.179,13.4v-13.4H79.823A2.284,2.284,0,0,1,77.542,82.1V45.613a2.285,2.285,0,0,1,2.281-2.281h54.735a2.285,2.285,0,0,1,2.281,2.281Zm0,0"/>
  <path id="Path_1834" data-name="Path 1834" d="M89.087,144a25.077,25.077,0,0,0-18.245,42.292v14.724h36.49V186.292A25.077,25.077,0,0,0,89.087,144Zm14.368,39.733-.684.67v12.051H98.21v-11.4H93.648v11.4H84.526v-11.4H79.965v11.4H75.4V184.4l-.684-.67a20.526,20.526,0,1,1,28.735,0Zm0,0" transform="translate(-45.755 -102.948)"/>
  <path id="Path_1835" data-name="Path 1835" d="M92.108,201.837a9.425,9.425,0,0,0,2.29,9.7,7.118,7.118,0,0,0,12.152-5.033v-3.414l-12.735-6.368Zm4.326,1.441.043-.127,5.51,2.755v.595a2.558,2.558,0,0,1-4.365,1.808,4.894,4.894,0,0,1-1.188-5.031Zm0,0" transform="translate(-65.498 -140.638)"/>
  <path id="Path_1836" data-name="Path 1836" d="M155.641,203.087V206.5a7.118,7.118,0,0,0,12.152,5.033,9.424,9.424,0,0,0,2.29-9.695l-1.706-5.12Zm8.927,5.223A2.558,2.558,0,0,1,160.2,206.5v-.595l5.51-2.755.043.129a4.892,4.892,0,0,1-1.188,5.029Zm0,0" transform="translate(-111.271 -140.638)"/>
  <path id="Path_1837" data-name="Path 1837" d="M355.4,170.4V168h-4.561v2.4a7.964,7.964,0,0,0,1.14,15.849h2.281a3.421,3.421,0,0,1,0,6.842h-2.281a3.425,3.425,0,0,1-3.421-3.421v-1.14H344v1.14a7.971,7.971,0,0,0,6.842,7.866v2.4H355.4v-2.4a7.964,7.964,0,0,0-1.14-15.849h-2.281a3.421,3.421,0,1,1,0-6.842h2.281a3.425,3.425,0,0,1,3.421,3.421v1.14h4.561v-1.14A7.971,7.971,0,0,0,355.4,170.4Zm0,0" transform="translate(-245.932 -120.106)"/>
  <path id="Path_1838" data-name="Path 1838" d="M320,32h41.052v4.561H320Zm0,0" transform="translate(-228.774 -22.877)"/>
  <path id="Path_1839" data-name="Path 1839" d="M480,32h4.561v4.561H480Zm0,0" transform="translate(-343.161 -22.877)"/>
  <path id="Path_1840" data-name="Path 1840" d="M320,96h41.052v4.561H320Zm0,0" transform="translate(-228.774 -68.632)"/>
  <path id="Path_1841" data-name="Path 1841" d="M480,96h4.561v4.561H480Zm0,0" transform="translate(-343.161 -68.632)"/>
  <path id="Path_1842" data-name="Path 1842" d="M352,64h41.052v4.561H352Zm0,0" transform="translate(-251.652 -45.755)"/>
  <path id="Path_1843" data-name="Path 1843" d="M320,64h4.561v4.561H320Zm0,0" transform="translate(-228.774 -45.755)"/>
  <path id="Path_1844" data-name="Path 1844" d="M320,392h41.052v4.561H320Zm0,0" transform="translate(-228.774 -280.248)"/>
  <path id="Path_1845" data-name="Path 1845" d="M480,392h4.561v4.561H480Zm0,0" transform="translate(-343.161 -280.248)"/>
  <path id="Path_1846" data-name="Path 1846" d="M320,456h41.052v4.561H320Zm0,0" transform="translate(-228.774 -326.003)"/>
  <path id="Path_1847" data-name="Path 1847" d="M480,456h4.561v4.561H480Zm0,0" transform="translate(-343.161 -326.003)"/>
  <path id="Path_1848" data-name="Path 1848" d="M352,424h41.052v4.561H352Zm0,0" transform="translate(-251.652 -303.126)"/>
  <path id="Path_1849" data-name="Path 1849" d="M320,424h4.561v4.561H320Zm0,0" transform="translate(-228.774 -303.126)"/>
</svg>
