<svg xmlns="http://www.w3.org/2000/svg" width="73.866" height="73" viewBox="0 0 73.866 73">
  <g id="money" transform="translate(0 -3)">
    <g id="Group_345" data-name="Group 345" transform="translate(43.274 39.529)">
      <g id="Group_344" data-name="Group 344" transform="translate(0 0)">
        <path id="Path_1294" data-name="Path 1294" d="M306.013,266.611a2.776,2.776,0,1,1,3.174-2.747,1.443,1.443,0,0,0,2.885,0,5.74,5.74,0,0,0-4.617-5.47v-.75a1.443,1.443,0,0,0-2.885,0v.75a5.74,5.74,0,0,0-4.617,5.47,5.864,5.864,0,0,0,6.059,5.632,2.776,2.776,0,1,1-3.174,2.747,1.443,1.443,0,1,0-2.885,0,5.74,5.74,0,0,0,4.617,5.47v.623a1.443,1.443,0,0,0,2.885,0v-.623a5.74,5.74,0,0,0,4.617-5.47A5.864,5.864,0,0,0,306.013,266.611Z" transform="translate(-299.954 -256.201)"/>
      </g>
    </g>
    <g id="Group_347" data-name="Group 347" transform="translate(55.388 34.419)">
      <g id="Group_346" data-name="Group 346" transform="translate(0 0)">
        <path id="Path_1295" data-name="Path 1295" d="M393.671,227.723a18.8,18.8,0,0,0-7.678-6.8,1.443,1.443,0,1,0-1.25,2.6,15.883,15.883,0,0,1,7.154,21.755,1.443,1.443,0,1,0,2.547,1.355,18.776,18.776,0,0,0-.772-18.915Z" transform="translate(-383.924 -220.785)"/>
      </g>
    </g>
    <g id="Group_349" data-name="Group 349" transform="translate(50.061 32.719)">
      <g id="Group_348" data-name="Group 348" transform="translate(0 0)">
        <path id="Path_1296" data-name="Path 1296" d="M348.54,209h-.1a1.443,1.443,0,1,0,0,2.885h.09A1.443,1.443,0,0,0,348.54,209Z" transform="translate(-347 -209.001)"/>
      </g>
    </g>
    <g id="Group_351" data-name="Group 351" transform="translate(30.585 41.911)">
      <g id="Group_350" data-name="Group 350">
        <path id="Path_1297" data-name="Path 1297" d="M223.89,296.586a15.883,15.883,0,0,1-7.153-21.755,1.443,1.443,0,1,0-2.547-1.355,18.763,18.763,0,0,0,8.451,25.71,1.443,1.443,0,1,0,1.25-2.6Z" transform="translate(-212.002 -272.711)"/>
      </g>
    </g>
    <g id="Group_353" data-name="Group 353" transform="translate(45.643 67.344)">
      <g id="Group_352" data-name="Group 352">
        <path id="Path_1298" data-name="Path 1298" d="M317.911,449h-.084a1.443,1.443,0,0,0-.013,2.885h.1a1.443,1.443,0,1,0,0-2.885Z" transform="translate(-316.378 -448.999)"/>
      </g>
    </g>
    <g id="Group_355" data-name="Group 355" transform="translate(0 3)">
      <g id="Group_354" data-name="Group 354" transform="translate(0 0)">
        <path id="Path_1299" data-name="Path 1299" d="M55.891,27.838a6.622,6.622,0,0,0-.641-1.178h3.756a6.636,6.636,0,0,0,0-13.273H47.453A6.632,6.632,0,0,0,41.982,3H6.636a6.636,6.636,0,0,0,0,13.273H18.189a6.618,6.618,0,0,0,0,7.5H14.427A6.632,6.632,0,0,0,10.3,35.6a6.624,6.624,0,0,0,0,10.387,6.624,6.624,0,0,0,0,10.387,6.632,6.632,0,0,0,4.124,11.83h17A24.52,24.52,0,1,0,55.891,27.838Zm3.115-11.566a3.751,3.751,0,1,1,0,7.5H23.66a3.751,3.751,0,1,1,0-7.5ZM6.636,13.387a3.751,3.751,0,0,1,0-7.5H41.982a3.751,3.751,0,0,1,0,7.5Zm7.79,13.273H49.773a3.749,3.749,0,0,1,1.637.377c-.682-.057-1.372-.088-2.069-.088a24.449,24.449,0,0,0-17.355,7.213H14.427a3.751,3.751,0,1,1,0-7.5Zm0,10.387H29.519a24.456,24.456,0,0,0-3.708,7.5H14.427a3.751,3.751,0,0,1,0-7.5Zm0,10.387H25.149a24.545,24.545,0,0,0-.089,7.5H14.427a3.751,3.751,0,0,1,0-7.5Zm0,17.889a3.751,3.751,0,1,1,0-7.5H25.649a24.429,24.429,0,0,0,3.461,7.5ZM49.34,73.115a21.64,21.64,0,1,1,21.64-21.64A21.665,21.665,0,0,1,49.34,73.115Z" transform="translate(0 -3)"/>
      </g>
    </g>
  </g>
</svg>
