<svg xmlns="http://www.w3.org/2000/svg" width="56.2" height="65.997" viewBox="0 0 56.2 65.997">
  <g id="surface1" transform="translate(0 0.001)">
    <path id="Path_1292" data-name="Path 1292" d="M133.016,158.457a12.575,12.575,0,1,0,12.574,12.574A12.589,12.589,0,0,0,133.016,158.457Zm7.466,10.206-9.008,9.008a1.936,1.936,0,0,1-2.739,0l-3.443-3.443a1.936,1.936,0,0,1,2.738-2.738l2.074,2.073,7.64-7.639a1.936,1.936,0,1,1,2.738,2.738Zm0,0" transform="translate(-104.916 -138.033)"/>
    <path id="Path_1293" data-name="Path 1293" d="M56.135,17.906l0-.051c-.029-.634-.048-1.3-.059-2.051a7,7,0,0,0-6.586-6.852c-7.588-.423-13.458-2.9-18.473-7.786l-.043-.041a4.224,4.224,0,0,0-5.74,0l-.043.041C20.173,6.053,14.3,8.528,6.715,8.952A6.994,6.994,0,0,0,.129,15.8c-.011.741-.031,1.412-.059,2.05l0,.119c-.148,7.738-.331,17.367,2.891,26.108A33.235,33.235,0,0,0,10.93,56.5a41.709,41.709,0,0,0,15.6,9.229,4.831,4.831,0,0,0,.639.174,4.723,4.723,0,0,0,1.857,0,4.848,4.848,0,0,0,.642-.175,41.737,41.737,0,0,0,15.586-9.234,33.281,33.281,0,0,0,7.973-12.422C56.465,35.306,56.282,25.658,56.135,17.906ZM28.1,49.446A16.447,16.447,0,1,1,44.547,33,16.466,16.466,0,0,1,28.1,49.446Zm0,0" transform="translate(0)"/>
  </g>
</svg>
