<svg xmlns="http://www.w3.org/2000/svg" width="59" height="72.85" viewBox="0 0 59 72.85">
  <g id="surface1" transform="translate(-0.5 0.001)">
    <path id="Path_1310" data-name="Path 1310" d="M57.26,31.1A7.2,7.2,0,0,0,50.5,29.854a6.218,6.218,0,0,0-1.652.864,45.38,45.38,0,0,0-6.324,6.515v-21.4a6.883,6.883,0,0,0-2.051-4.877,6.614,6.614,0,0,0-7.08-1.468V7.4a7.492,7.492,0,0,0-2.233-5.309A7.174,7.174,0,0,0,25.964,0,7.334,7.334,0,0,0,18.8,7.08a7.033,7.033,0,0,0-2.7-.624,7.427,7.427,0,0,0-5.357,2.1,7.011,7.011,0,0,0-2.175,5.054l-.005,2.026A6.141,6.141,0,0,0,.5,21.464l0,31.1.005.147A27.567,27.567,0,0,0,3.047,63.1,16.164,16.164,0,0,0,8.5,69.408c4.533,3.05,10.132,3.441,14.5,3.441,8.584,0,16.307-4.268,20.17-11.142.47-.757,1.707-2.7,3.044-4.8,1.3-2.045,2.513-3.93,3.58-5.593.587-.914,1.121-1.746,1.584-2.471,1.727-2.7,3.567-5.319,5.47-7.783.706-.914.923-1.162.973-1.216A6.318,6.318,0,0,0,59.449,36.4,5.767,5.767,0,0,0,57.26,31.1Zm-2.046,4.729a2.07,2.07,0,0,1-.539,1.122c-.155.169-.432.492-1.2,1.491-1.98,2.563-3.895,5.286-5.689,8.093-.462.723-.994,1.551-1.58,2.463-1.07,1.666-2.283,3.556-3.589,5.608-1.368,2.149-2.634,4.139-3.1,4.888l-.048.082c-3.1,5.549-9.408,9-16.462,9-3.764,0-8.544-.308-12.118-2.713C7.24,63.41,5.242,59.036,4.776,52.491l0-31.026a1.871,1.871,0,0,1,3.743,0V33.1c0,.034,0,.068.005.1s0,.076.006.114.01.067.015.1.009.075.017.112.017.066.026.1.016.071.027.106.023.066.036.1.022.066.036.1.029.063.044.094.029.063.045.093.036.059.053.088.034.059.053.088.041.055.062.082.039.056.061.082.046.05.068.075.046.053.07.077.049.044.074.067.051.048.078.071.053.04.079.06.056.043.084.063.056.034.084.051.061.039.092.057.059.028.089.043.064.033.1.047.063.023.094.035.067.026.1.037.067.017.1.026.069.019.1.027.071.011.107.017.07.012.106.016.072,0,.108.006.071.006.107.006h.006c.074,0,.147,0,.218-.011.031,0,.062-.01.093-.014s.08-.01.119-.018.081-.02.121-.031.057-.013.084-.022c.044-.014.088-.031.131-.048.021-.008.044-.015.065-.024.043-.018.084-.04.126-.061l.061-.029c.039-.021.076-.046.113-.069.021-.013.043-.024.063-.038s.067-.049.1-.074.044-.031.064-.048.058-.052.087-.079.044-.038.065-.058.051-.056.076-.083.043-.045.062-.068.042-.056.063-.085.041-.052.059-.08.036-.058.053-.087.037-.058.054-.088.029-.061.044-.092.032-.063.046-.1.023-.064.035-.1.026-.066.037-.1.017-.066.026-.1.019-.069.027-.105.011-.068.016-.1.013-.072.017-.109,0-.07.006-.105.006-.073.006-.111l.049-19.5a2.778,2.778,0,0,1,.878-1.994,3.127,3.127,0,0,1,2.254-.89,2.963,2.963,0,0,1,2.8,2.993l.024,19.269c0,.039,0,.077.006.115s0,.069,0,.1.012.078.018.117.008.064.014.1.021.083.032.125.013.054.02.08c.014.045.032.088.048.131.008.022.015.044.023.065.02.046.043.091.066.136.009.017.016.035.024.051.025.046.053.09.081.133.009.015.017.029.026.043.029.044.062.085.094.126l.029.038c.036.044.075.085.115.126.008.009.015.018.023.026.041.041.084.078.128.116l.024.022c.044.036.089.069.136.1l.029.022c.047.032.1.06.144.088l.032.019c.051.027.1.052.157.076l.029.015c.054.023.111.042.167.061l.029.011c.056.017.113.031.171.044l.034.009a2.153,2.153,0,0,0,.43.043h0c.037,0,.074,0,.111-.006s.071,0,.106-.006.076-.012.115-.018.066-.008.1-.015.076-.019.113-.029.061-.014.091-.024.075-.027.112-.041.057-.019.084-.03.076-.036.113-.054.05-.023.074-.036.072-.043.107-.065.047-.027.069-.042.066-.048.1-.073.045-.032.067-.05.059-.053.089-.081.042-.037.063-.057.053-.058.079-.087.04-.042.059-.065.044-.059.066-.089.039-.05.057-.076.037-.06.055-.091.036-.056.052-.085.03-.063.045-.094.032-.061.045-.093.023-.063.034-.094.027-.067.037-.1.017-.067.026-.1.019-.068.026-.1.011-.071.017-.106.012-.071.016-.106,0-.073.006-.11.006-.071.006-.108V7.3a3.04,3.04,0,0,1,2.973-3.026,2.952,2.952,0,0,1,2.125.868A3.193,3.193,0,0,1,29.119,7.4v25.7c0,.039,0,.077.006.115s0,.068,0,.1.012.075.017.112.009.068.016.1.019.073.028.11.014.063.024.094.028.078.042.116.018.054.029.08.037.078.057.117c.011.023.021.047.033.069.021.04.046.077.069.115.013.02.024.042.038.062.026.038.054.074.082.11.014.018.026.037.041.054.031.038.066.074.1.11.013.013.025.028.038.042.035.036.073.068.111.1.014.012.027.026.041.037.042.035.087.067.131.1l.033.025c.048.032.1.062.148.09l.027.017c.056.03.112.057.171.082l.016.008c.06.026.123.048.186.068l.011,0a2.129,2.129,0,0,0,.414.085h0c.072.007.145.011.218.011h0c.038,0,.075,0,.113-.006s.07,0,.1-.006.078-.012.117-.018.064-.008.1-.015.082-.02.122-.031.055-.013.082-.021c.043-.014.085-.031.127-.047.023-.009.046-.016.069-.026.043-.018.084-.039.126-.061.02-.01.041-.018.061-.029.041-.022.08-.047.119-.072.019-.012.038-.022.057-.035.04-.027.077-.057.115-.086l.05-.037c.037-.031.072-.065.108-.1.014-.013.03-.026.043-.04.035-.034.067-.071.1-.108.013-.015.027-.028.04-.043.031-.037.058-.077.086-.116.012-.017.025-.032.037-.049.026-.039.05-.08.073-.12.011-.019.024-.037.034-.056.022-.041.041-.084.061-.127.009-.02.021-.04.029-.06.018-.042.032-.085.047-.128.008-.023.018-.045.025-.069.012-.041.022-.083.032-.125.006-.027.015-.053.02-.079s.013-.084.019-.126.01-.057.013-.087,0-.079.006-.119,0-.065,0-.1V15.467a2.449,2.449,0,0,1,2.377-2.158,2.372,2.372,0,0,1,1.707.7,2.583,2.583,0,0,1,.773,1.829V41.155a3.035,3.035,0,0,0,5.656,1.506l.013-.024a41.23,41.23,0,0,1,7.46-8.476,1.937,1.937,0,0,1,.517-.268,2.875,2.875,0,0,1,2.658.519A1.577,1.577,0,0,1,55.213,35.833Zm0,0" transform="translate(0 0)"/>
  </g>
</svg>
