<svg xmlns="http://www.w3.org/2000/svg" width="81.333" height="62.232" viewBox="0 0 81.333 62.232">
  <g id="team" transform="translate(0 -60.121)">
    <g id="Group_357" data-name="Group 357" transform="translate(26.741 114.877)">
      <g id="Group_356" data-name="Group 356">
        <path id="Path_1304" data-name="Path 1304" d="M169.53,404.814a1.191,1.191,0,0,0-1.191,1.191V411.1a1.191,1.191,0,1,0,2.383,0v-5.094A1.191,1.191,0,0,0,169.53,404.814Z" transform="translate(-168.339 -404.814)"/>
      </g>
    </g>
    <g id="Group_359" data-name="Group 359" transform="translate(52.209 114.877)">
      <g id="Group_358" data-name="Group 358">
        <path id="Path_1305" data-name="Path 1305" d="M329.852,404.814a1.191,1.191,0,0,0-1.191,1.191V411.1a1.191,1.191,0,0,0,2.383,0v-5.094A1.191,1.191,0,0,0,329.852,404.814Z" transform="translate(-328.661 -404.814)"/>
      </g>
    </g>
    <g id="Group_361" data-name="Group 361" transform="translate(8.914 88.136)">
      <g id="Group_360" data-name="Group 360">
        <path id="Path_1306" data-name="Path 1306" d="M65.477,237.875c-2.767-1.383-7.954-1.4-8.173-1.4a1.191,1.191,0,0,0,0,2.383c1.34,0,5.23.209,7.108,1.148a1.191,1.191,0,0,0,1.066-2.131Z" transform="translate(-56.113 -236.476)"/>
      </g>
    </g>
    <g id="Group_363" data-name="Group 363" transform="translate(5.093 112.33)">
      <g id="Group_362" data-name="Group 362" transform="translate(0 0)">
        <path id="Path_1307" data-name="Path 1307" d="M33.255,388.782a1.191,1.191,0,0,0-1.191,1.191v7.64a1.191,1.191,0,1,0,2.383,0v-7.64A1.191,1.191,0,0,0,33.255,388.782Z" transform="translate(-32.064 -388.782)"/>
      </g>
    </g>
    <g id="Group_365" data-name="Group 365" transform="translate(0 60.121)">
      <g id="Group_364" data-name="Group 364" transform="translate(0 0)">
        <path id="Path_1308" data-name="Path 1308" d="M78.563,107.881l-4.825-2.412a.082.082,0,0,1-.045-.073V102.97a8.8,8.8,0,0,0,3.733-6.05A10.075,10.075,0,0,0,74.748,83.8a5.113,5.113,0,0,0,.218-1.475c0-3.114-2.819-5.648-6.285-5.648S62.4,79.209,62.4,82.324a5.111,5.111,0,0,0,.217,1.476,10.156,10.156,0,0,0-3.307,4.309c-.3-2.9-.6-6.333-.9-10.329A19.72,19.72,0,0,0,52.925,64.9a17.041,17.041,0,0,0-12.259-4.781A17.04,17.04,0,0,0,28.408,64.9a19.721,19.721,0,0,0-5.484,12.877c-.1,1.4-.208,2.727-.314,3.99H11.379A7.567,7.567,0,0,0,3.82,89.327V89.4a6.316,6.316,0,0,0,.664,2.811l.61,1.22v1.945a9.293,9.293,0,0,0,3.82,7.513v1.721a.5.5,0,0,1-.36.478l-4.919,1.405A5.032,5.032,0,0,0,0,111.31v9.852a1.191,1.191,0,1,0,2.383,0V111.31a2.64,2.64,0,0,1,1.907-2.528l4.919-1.405a2.829,2.829,0,0,0,.506-.2l3.019,3.019v10.967a1.191,1.191,0,1,0,2.383,0V110.195l3.04-3.04a6.522,6.522,0,0,0,1.108.4l1.208.345a6.287,6.287,0,0,0-2.645,5.12v8.142a1.191,1.191,0,1,0,2.383,0V113.02a3.9,3.9,0,0,1,2.326-3.569l6.812-3.009a12.655,12.655,0,0,0,22.64,0l6.81,3.008a3.9,3.9,0,0,1,2.326,3.569v8.142a1.191,1.191,0,0,0,2.383,0V113.02a6.283,6.283,0,0,0-1.5-4.076l1.844-.922,1.384,1.315a5.009,5.009,0,0,0,6.9,0l1.384-1.315,3.98,1.99a2.614,2.614,0,0,1,1.453,2.351v8.8a1.191,1.191,0,1,0,2.383,0v-8.8A4.985,4.985,0,0,0,78.563,107.881ZM68.681,79.058c2.152,0,3.9,1.465,3.9,3.266,0,.075-.006.15-.012.225a10.094,10.094,0,0,0-7.779,0c-.006-.075-.013-.149-.013-.225C64.779,80.523,66.53,79.058,68.681,79.058ZM13.925,108.016,11.211,105.3a2.852,2.852,0,0,0,.086-.694v-.5a8.347,8.347,0,0,0,2.358.417c.092,0,.183,0,.274,0a8.848,8.848,0,0,0,2.625-.4v.478a3.274,3.274,0,0,0,.074.707Zm-.2-5.877a6.666,6.666,0,0,1-6.25-6.766V93.147a1.191,1.191,0,0,0-.126-.533l-.736-1.471A3.924,3.924,0,0,1,6.2,89.4v-.071a5.182,5.182,0,0,1,5.176-5.176H21.648V89.1a5.2,5.2,0,0,1-.546,2.314l-.6,1.2a1.191,1.191,0,0,0-.126.533v2.547a6.449,6.449,0,0,1-6.648,6.446Zm9.957,4.2-3.764-1.075c-.983-.281-.983-.39-.983-.656v-1.641a8.8,8.8,0,0,0,1.812-1.666,2.443,2.443,0,0,0,.864.973,26.309,26.309,0,0,0,5.408,2.592Zm16.983,4.718a10.259,10.259,0,0,1-9.138-5.578l1.734-.766a3.74,3.74,0,0,0,2.228-3.419V98.434a13.92,13.92,0,0,0,10.351,0v2.859a3.74,3.74,0,0,0,2.228,3.419l1.734.766A10.234,10.234,0,0,1,40.667,111.057ZM51,103.4l-1.965-.868a1.356,1.356,0,0,1-.808-1.24V97.2a13.926,13.926,0,0,0,6.367-11.69V83.273A4.969,4.969,0,0,0,52.9,79.515C50.5,77.433,45.086,73.8,35.692,72.861a1.191,1.191,0,0,0-.237,2.371c8.738.874,13.7,4.185,15.88,6.082a2.587,2.587,0,0,1,.874,1.959v2.234a11.542,11.542,0,0,1-23.085,0v-1a1.3,1.3,0,0,1,.679-1.122,9.431,9.431,0,0,0,4.354-5.145A1.191,1.191,0,1,0,31.9,77.49a7.085,7.085,0,0,1-3.282,3.833,3.7,3.7,0,0,0-1.873,3.187v1A13.925,13.925,0,0,0,33.108,97.2v4.1a1.356,1.356,0,0,1-.808,1.24l-1.965.868a26.32,26.32,0,0,1-7.428-3.128.059.059,0,0,1-.029-.069c.416-2.457,1.483-9.542,2.422-22.25A17.385,17.385,0,0,1,30.081,66.6,14.708,14.708,0,0,1,40.667,62.5,14.708,14.708,0,0,1,51.252,66.6a17.386,17.386,0,0,1,4.78,11.355c.938,12.707,2.006,19.793,2.422,22.25a.059.059,0,0,1-.029.069A26.327,26.327,0,0,1,51,103.4Zm12.672,1.994a.082.082,0,0,1-.045.073l-3.733,1.866c-.044-.021-.087-.044-.132-.064l-5.447-2.406a26.313,26.313,0,0,0,5.407-2.592A2.449,2.449,0,0,0,60.8,99.806l-.028-.168a8.813,8.813,0,0,0,2.894,3.332Zm6.822,2.215a2.627,2.627,0,0,1-3.622,0l-1.107-1.052a2.465,2.465,0,0,0,.289-1.163v-1.268a8.867,8.867,0,0,0,5.257,0v1.267a2.465,2.465,0,0,0,.29,1.163Zm-1.811-5.467A6.433,6.433,0,0,1,62.273,96.4a1.192,1.192,0,0,0-.169-.5,7.723,7.723,0,1,1,13.908-1.618c-3.383-3.437-9.334-4.784-9.621-4.847A1.191,1.191,0,0,0,64.943,90.6a2.913,2.913,0,0,1-.924,1.7A1.191,1.191,0,0,0,65.7,93.989,5.764,5.764,0,0,0,67,92.065c2,.6,6.166,2.1,8.033,4.74A6.432,6.432,0,0,1,68.681,102.143Z" transform="translate(0 -60.121)"/>
      </g>
    </g>
    <g id="Group_367" data-name="Group 367" transform="translate(73.857 113.904)">
      <g id="Group_366" data-name="Group 366" transform="translate(0 0)">
        <path id="Path_1309" data-name="Path 1309" d="M466.127,398.692a1.191,1.191,0,0,0-1.191,1.191v6.066a1.191,1.191,0,0,0,2.383,0v-6.066A1.191,1.191,0,0,0,466.127,398.692Z" transform="translate(-464.936 -398.692)"/>
      </g>
    </g>
  </g>
</svg>
