<svg id="call" xmlns="http://www.w3.org/2000/svg" width="67.033" height="67.033" viewBox="0 0 67.033 67.033">
  <g id="Group_369" data-name="Group 369">
    <path id="Path_1320" data-name="Path 1320" d="M57.213,9.813a33.517,33.517,0,1,0,9.82,23.7A33.517,33.517,0,0,0,57.213,9.813ZM50.759,46.688l0,0v-.011l-1.7,1.687a8.938,8.938,0,0,1-8.435,2.413A29.7,29.7,0,0,1,32,46.916a39.85,39.85,0,0,1-6.8-5.486,40.156,40.156,0,0,1-5.083-6.167,31.278,31.278,0,0,1-3.821-7.731A8.938,8.938,0,0,1,18.523,18.4l1.989-1.989a1.419,1.419,0,0,1,2.007,0l0,0L28.8,22.695a1.419,1.419,0,0,1,0,2.007l0,0-3.687,3.687A3.005,3.005,0,0,0,24.8,32.3a43.117,43.117,0,0,0,4.413,5.15,42.853,42.853,0,0,0,5.81,4.882A3.028,3.028,0,0,0,38.89,42l3.564-3.62a1.419,1.419,0,0,1,2.007,0l0,0,6.29,6.3A1.418,1.418,0,0,1,50.759,46.688Z" transform="translate(0 0)" fill="#9f6ce3"/>
  </g>
</svg>
