<svg xmlns="http://www.w3.org/2000/svg" width="146" height="146" viewBox="0 0 146 146">
  <g id="face" transform="translate(-16 -16)">
    <path id="Path_1827" data-name="Path 1827" d="M20.867,20.867h21.9V16H18.433A2.433,2.433,0,0,0,16,18.433V42.767h4.867Z"/>
    <path id="Path_1828" data-name="Path 1828" d="M429.9,42.767h4.867V18.433A2.433,2.433,0,0,0,432.333,16H408v4.867h21.9Z" transform="translate(-272.767)"/>
    <path id="Path_1829" data-name="Path 1829" d="M429.9,429.9H408v4.867h24.333a2.433,2.433,0,0,0,2.433-2.433V408H429.9Z" transform="translate(-272.767 -272.767)"/>
    <path id="Path_1830" data-name="Path 1830" d="M18.433,434.767H42.767V429.9h-21.9V408H16v24.333A2.433,2.433,0,0,0,18.433,434.767Z" transform="translate(0 -272.767)"/>
    <path id="Path_1831" data-name="Path 1831" d="M185.281,82.1a62.279,62.279,0,0,0,2.485-17.434,48.667,48.667,0,0,0-97.333,0A62.279,62.279,0,0,0,92.919,82.1,7.312,7.312,0,0,0,88,89v12.167a14.644,14.644,0,0,0,10.916,14.128l.6,9.627a26.872,26.872,0,0,0,9.579,18.893l15.538,12.949a22.6,22.6,0,0,0,28.932,0L169.1,143.814h0a26.874,26.874,0,0,0,9.579-18.892l.6-9.627A14.644,14.644,0,0,0,190.2,101.167V89a7.312,7.312,0,0,0-4.919-6.9ZM139.1,20.867a43.85,43.85,0,0,1,43.8,43.8,57.453,57.453,0,0,1-2.953,18.2l-.624,1.873-1.982-19.817A21.832,21.832,0,0,0,155.55,45.2h-32.9a21.832,21.832,0,0,0-21.791,19.721L98.877,84.738l-.624-1.873a57.453,57.453,0,0,1-2.953-18.2A43.85,43.85,0,0,1,139.1,20.867ZM131.286,138.5l1.487,1.115a2.433,2.433,0,0,0,1.46.487h9.733a2.433,2.433,0,0,0,1.46-.487l1.487-1.115L139.1,154.125Zm19.547-49.863a11.3,11.3,0,0,1,13.035,0l.469.365-.469.365a11.3,11.3,0,0,1-13.035,0L150.364,89ZM127.838,89l-.469.365a11.3,11.3,0,0,1-13.035,0L113.865,89l.469-.365a11.3,11.3,0,0,1,13.035,0Zm6.186,2.433h10.156l1.991,21.9H132.031Zm11.37-4.867H132.808l-7.3-7.3h27.185ZM118.359,79l2.7,2.7c-.071,0-.142,0-.213,0a15.5,15.5,0,0,0-9.505,3.093l-.45.35-4.042-9.431ZM111.12,93.032l.224.174A15.508,15.508,0,0,0,120.85,96.3a15.927,15.927,0,0,0,8.034-2.1l-1.7,18.7L105.8,109.008Zm23.114,35.188,3.778,1.889a2.433,2.433,0,0,0,2.177,0l3.778-1.889,5.124,2.562-5.935,4.451h-8.111l-5.935-4.451Zm7.92-4.534-3.053,1.527-3.053-1.527L133.3,118.2H144.9Zm8.863-10.79-1.7-18.7a15.927,15.927,0,0,0,8.034,2.1,15.5,15.5,0,0,0,9.505-3.093l.224-.174,5.325,15.975Zm16.29-27.753-.45-.35A15.5,15.5,0,0,0,157.35,81.7c-.071,0-.142,0-.213,0l2.7-2.7,11.506-3.287ZM158.226,74.4H119.974l-14.751-4.215.478-4.78A16.98,16.98,0,0,1,122.65,50.067h32.9A16.98,16.98,0,0,1,172.5,65.405l.478,4.78ZM102.608,96.345,104.082,81.6l3.217,7.507L102.967,102.1Zm25.127,21.6,3.234,6.468-6.083,3.042L110.7,114.847Zm25.58,9.51-6.083-3.042,3.234-6.468,17.033-3.1ZM170.9,89.108l3.217-7.507,1.474,14.744-.36,5.758ZM92.867,101.167V89a2.436,2.436,0,0,1,1.547-2.264l3.346,10.032.829,13.268A9.771,9.771,0,0,1,92.867,101.167Zm19.345,38.909a21.989,21.989,0,0,1-7.837-15.458l-.588-9.407,18.747,16.663,12.375,24.751a17.753,17.753,0,0,1-7.159-3.6Zm53.777,0h0l-15.538,12.948a17.753,17.753,0,0,1-7.159,3.6l12.375-24.751,18.747-16.663-.588,9.407a21.989,21.989,0,0,1-7.837,15.458Zm19.345-38.909a9.771,9.771,0,0,1-5.72,8.87l.829-13.268,3.346-10.032A2.436,2.436,0,0,1,185.333,89Z" transform="translate(-50.1)"/>
  </g>
</svg>
