<svg xmlns="http://www.w3.org/2000/svg" width="73.001" height="73" viewBox="0 0 73.001 73">
  <g id="fraud" transform="translate(0 -0.235)">
    <path id="Path_1300" data-name="Path 1300" d="M84.659,59.39a25.5,25.5,0,1,0-25.5,25.5A25.5,25.5,0,0,0,84.659,59.39Zm-48.571,0A23.071,23.071,0,1,1,59.159,82.462,23.071,23.071,0,0,1,36.089,59.39Zm0,0" transform="translate(-28.711 -28.708)"/>
    <path id="Path_1301" data-name="Path 1301" d="M65.518,58.884l0,0,0,0L62.94,56.306a2.409,2.409,0,0,0-1.716-.712h0a2.418,2.418,0,0,0-.621.09l-3.052-3.052a2.42,2.42,0,0,0-.62-2.338l-1.867-1.875a30.4,30.4,0,1,0-6.865,6.87l1.862,1.875a2.364,2.364,0,0,0,2.338.619l3.052,3.052a2.363,2.363,0,0,0,.621,2.338l2.574,2.574,0,0,0,0,6.007,6.007a4.857,4.857,0,1,0,6.868-6.868Zm-63-28.2a27.928,27.928,0,1,1,49.511,17.7l-.088.107a28.206,28.206,0,0,1-3.67,3.672l-.131.109A27.912,27.912,0,0,1,2.521,30.683ZM50.613,53.349c.231-.206.458-.417.683-.63q.615-.582,1.2-1.2c.211-.223.42-.447.624-.676.147-.165.306-.318.45-.486l1.643,1.651,0,0-3.434,3.434h0l-1.644-1.655c.165-.141.316-.3.479-.443Zm5.458,1.239,2.575,2.575L56.929,58.88,54.353,56.3Zm5.152,3.434,1.717,1.718-3.434,3.434-1.717-1.718Zm8.586,12.021a2.487,2.487,0,0,1-3.434,0L61.222,64.89l3.434-3.434,5.152,5.152a2.429,2.429,0,0,1,0,3.434Zm0,0" transform="translate(0 0)"/>
    <path id="Path_1302" data-name="Path 1302" d="M121.338,111.22a13.448,13.448,0,0,1,2.169-2.545,7.133,7.133,0,0,0,2.636-6.389,6.489,6.489,0,0,0,2.62-4.138c.479-4.126-.651-4.655-1.076-4.854a2,2,0,0,0-.818-.188c0-.2,0-.419,0-.626,2.767-1.3,4.43-3.1,4.43-5.156,0-2.489-2.4-4.634-6.574-5.968a23,23,0,0,0-1.457-4.74,2.433,2.433,0,0,0-3.574-1.022c-.192.129-.4.284-.631.451a6.207,6.207,0,0,1-3.55,1.565,6.2,6.2,0,0,1-3.55-1.565c-.229-.167-.439-.321-.631-.45a2.43,2.43,0,0,0-3.571,1.021,22.974,22.974,0,0,0-1.458,4.741c-4.176,1.334-6.574,3.478-6.574,5.968,0,2.055,1.664,3.857,4.431,5.156,0,.207-.007.426-.005.625a2,2,0,0,0-.818.19c-.426.2-1.556.728-1.072,4.895a6.487,6.487,0,0,0,2.616,4.1,7.133,7.133,0,0,0,2.636,6.389,13.407,13.407,0,0,1,2.169,2.545c.974,1.384,1.98,2.817,4.39,2.817h2.879c2.41,0,3.416-1.432,4.39-2.817ZM106.632,94.668c-.023-.4-.044-.817-.051-1.262a28.835,28.835,0,0,0,6.361,1.107l.35.024c.281.017.561.033.847.044.052,0,.1.007.155.009v1.793a8.267,8.267,0,0,1-3.643.655,4.774,4.774,0,0,1-4.019-2.37Zm10.091-.079c.053,0,.1-.007.155-.009.286-.01.566-.027.847-.044l.35-.024a28.835,28.835,0,0,0,6.361-1.107c-.007.445-.027.858-.051,1.262a4.777,4.777,0,0,1-4.019,2.37,8.34,8.34,0,0,1-3.643-.651Zm-6.747-16.977c.166.111.347.244.545.388a7.126,7.126,0,0,0,9.977,0c.2-.145.378-.277.555-.383a21.81,21.81,0,0,1,1.455,5.132c.043.264.077.525.11.786.024.184.051.366.069.554.036.354.057.7.075,1.05,0,.1.016.188.019.284a16,16,0,0,1-6.033,1.843c-.4.036-.816.056-1.239.056a14.462,14.462,0,0,1-3.481-.439,16.376,16.376,0,0,1-3.791-1.463c0-.095.014-.186.018-.28.018-.349.04-.7.075-1.053.019-.187.046-.368.07-.551.033-.261.067-.523.109-.787a21.484,21.484,0,0,1,1.467-5.138Zm-7.824,9.712c0-1.133,1.419-2.342,3.737-3.264-.007.08,0,.157-.011.237-.049.6-.084,1.2-.084,1.812a1.214,1.214,0,0,0,.54,1.01,17.3,17.3,0,0,0,18.347,0,1.215,1.215,0,0,0,.541-1.01c0-.611-.035-1.214-.084-1.813-.006-.08,0-.156-.011-.237,2.318.922,3.737,2.131,3.737,3.264s-1.4,2.333-3.736,3.257c-.161.064-.333.122-.5.183a26.409,26.409,0,0,1-7.511,1.375c-.072,0-.142.01-.214.013q-.686.028-1.4.029t-1.395-.029c-.073,0-.143-.01-.215-.013a26.409,26.409,0,0,1-7.511-1.375c-.167-.061-.339-.119-.5-.183C103.552,89.657,102.152,88.457,102.152,87.324Zm9.513,22.5a15.639,15.639,0,0,0-2.552-2.972c-1.951-1.715-1.883-3.092-1.788-5l.01-.2a1.218,1.218,0,0,0-.55-1.076,1.145,1.145,0,0,0-.229-.116,3.9,3.9,0,0,1-1.89-2.6,12.846,12.846,0,0,1-.078-1.891,7.172,7.172,0,0,0,6.064,3.49,10.275,10.275,0,0,0,4.857-.973,10.279,10.279,0,0,0,4.857.973,7.172,7.172,0,0,0,6.063-3.49,12.812,12.812,0,0,1-.071,1.842,3.892,3.892,0,0,1-1.9,2.646,1.142,1.142,0,0,0-.229.116,1.216,1.216,0,0,0-.55,1.076l.01.2c.095,1.906.162,3.285-1.789,5a15.64,15.64,0,0,0-2.552,2.972c-.953,1.357-1.308,1.786-2.4,1.786h-2.879c-1.1,0-1.45-.429-2.4-1.786Zm0,0" transform="translate(-85.06 -63.926)"/>
    <path id="Path_1303" data-name="Path 1303" d="M211.58,273.754a1.217,1.217,0,0,0-1.715-.009,3.019,3.019,0,0,1-1.574.862,1.214,1.214,0,0,0,0,2.428,5.333,5.333,0,0,0,3.287-1.57A1.211,1.211,0,0,0,211.58,273.754Zm0,0" transform="translate(-176.629 -232.996)"/>
  </g>
</svg>
