<svg xmlns="http://www.w3.org/2000/svg" width="72.467" height="76.09" viewBox="0 0 72.467 76.09">
  <g id="Outline" transform="translate(-16)">
    <path id="Path_1311" data-name="Path 1311" d="M25.6,39.21l4.034-1.917,2.839,1.176,1.5,4.208a1.208,1.208,0,0,0,1.137.8h5.264a1.208,1.208,0,0,0,1.138-.8l1.5-4.208,2.839-1.176,4.034,1.917a1.209,1.209,0,0,0,1.373-.237l3.722-3.721a1.208,1.208,0,0,0,.237-1.373l-1.917-4.034,1.176-2.839,4.208-1.5a1.208,1.208,0,0,0,.8-1.138V19.108a1.208,1.208,0,0,0-.8-1.138l-4.208-1.5-1.176-2.839L55.21,9.6a1.208,1.208,0,0,0-.237-1.373L51.252,4.507a1.208,1.208,0,0,0-1.373-.237L45.846,6.187,43.007,5.011,41.51.8A1.208,1.208,0,0,0,40.372,0H35.108A1.208,1.208,0,0,0,33.97.8l-1.5,4.208L29.635,6.187,25.6,4.27a1.208,1.208,0,0,0-1.374.237L20.507,8.228A1.208,1.208,0,0,0,20.27,9.6l1.917,4.034-1.176,2.839L16.8,17.97a1.208,1.208,0,0,0-.8,1.138v5.264a1.208,1.208,0,0,0,.8,1.138l4.208,1.5,1.176,2.839L20.27,33.879a1.208,1.208,0,0,0,.237,1.373l3.721,3.721a1.209,1.209,0,0,0,1.374.237Zm-.978-9.793-1.587-3.831a1.207,1.207,0,0,0-.711-.675l-3.91-1.391V19.961l3.91-1.391a1.207,1.207,0,0,0,.711-.676l1.587-3.831a1.208,1.208,0,0,0-.025-.981L22.818,9.333l2.516-2.516L29.082,8.6a1.207,1.207,0,0,0,.981.025l3.831-1.587a1.207,1.207,0,0,0,.675-.711l1.391-3.91H39.52l1.391,3.91a1.207,1.207,0,0,0,.676.711l3.831,1.587A1.207,1.207,0,0,0,46.4,8.6l3.748-1.781,2.517,2.517-1.781,3.748a1.208,1.208,0,0,0-.025.981L52.444,17.9a1.207,1.207,0,0,0,.71.674l3.91,1.391v3.559l-3.91,1.391a1.207,1.207,0,0,0-.711.676l-1.587,3.831a1.208,1.208,0,0,0,.025.981l1.781,3.748-2.517,2.517L46.4,34.882a1.207,1.207,0,0,0-.981-.025l-3.831,1.587a1.207,1.207,0,0,0-.674.71l-1.391,3.91H35.961l-1.391-3.91a1.207,1.207,0,0,0-.676-.711l-3.831-1.587a1.207,1.207,0,0,0-.981.025l-3.748,1.781-2.516-2.516L24.6,30.4a1.208,1.208,0,0,0,.025-.981Z"/>
    <path id="Path_1312" data-name="Path 1312" d="M98.87,93.74A10.87,10.87,0,1,0,88,82.87,10.87,10.87,0,0,0,98.87,93.74Zm0-19.324a8.454,8.454,0,1,1-8.454,8.454A8.454,8.454,0,0,1,98.87,74.416Z" transform="translate(-61.13 -61.13)"/>
    <path id="Path_1313" data-name="Path 1313" d="M109.862,289.744l-1.587,3.831a1.208,1.208,0,0,0,.025.981l1.781,3.748-2.517,2.517-3.748-1.781a1.208,1.208,0,0,0-.981-.025l-3.83,1.586a1.208,1.208,0,0,0-.676.711l-1.391,3.91H93.38l-1.391-3.91a1.207,1.207,0,0,0-.676-.711l-3.831-1.587a1.207,1.207,0,0,0-.981.025l-3.748,1.781L80.236,298.3l1.781-3.748a1.208,1.208,0,0,0,.025-.981l-1.587-3.831a1.208,1.208,0,0,0-.71-.675l-3.91-1.39v-3.559l3.91-1.391a1.208,1.208,0,0,0,.711-.676l1.587-3.831a1.208,1.208,0,0,0-.025-.981l-2.148-4.518-2.181,1.038,1.917,4.034-1.176,2.839-4.208,1.5a1.208,1.208,0,0,0-.8,1.138v5.264a1.208,1.208,0,0,0,.8,1.138l4.208,1.5L79.607,294l-1.917,4.034a1.208,1.208,0,0,0,.237,1.373l3.721,3.721a1.208,1.208,0,0,0,1.372.237l4.034-1.917,2.838,1.176,1.5,4.208a1.208,1.208,0,0,0,1.139.8h5.264a1.208,1.208,0,0,0,1.138-.8l1.5-4.208,2.839-1.176,4.033,1.917a1.208,1.208,0,0,0,1.372-.237l3.722-3.721a1.208,1.208,0,0,0,.237-1.373L110.712,294l1.381-3.335Z" transform="translate(-48.751 -231.549)"/>
    <path id="Path_1314" data-name="Path 1314" d="M277.506,247.582l-3.722-3.721a1.208,1.208,0,0,0-1.372-.237l-4.518,2.148,1.037,2.182,3.749-1.781,2.517,2.517-1.781,3.748a1.208,1.208,0,0,0-.025.981l1.37,3.308,2.232-.925-1.165-2.812,1.917-4.034a1.208,1.208,0,0,0-.237-1.374Z" transform="translate(-213.864 -206.744)"/>
    <path id="Path_1315" data-name="Path 1315" d="M156.286,309.74a10.87,10.87,0,1,0-10.87-10.87A10.87,10.87,0,0,0,156.286,309.74Zm0-19.324a8.454,8.454,0,1,1-8.454,8.454A8.454,8.454,0,0,1,156.286,290.416Z" transform="translate(-109.878 -244.52)"/>
    <path id="Path_1316" data-name="Path 1316" d="M324.565,41.97l-4.208-1.5-1.176-2.839L321.1,33.6a1.208,1.208,0,0,0-.237-1.373l-3.721-3.721a1.208,1.208,0,0,0-1.373-.237l-4.034,1.917-2.839-1.176L307.4,24.8a1.208,1.208,0,0,0-1.138-.8H301a1.208,1.208,0,0,0-1.138.8l-1.5,4.208-3.335,1.382.924,2.232,3.831-1.587a1.208,1.208,0,0,0,.675-.711l1.39-3.91h3.559l1.391,3.91a1.207,1.207,0,0,0,.676.711l3.831,1.587a1.208,1.208,0,0,0,.981-.025l3.749-1.781,2.517,2.517-1.781,3.748a1.208,1.208,0,0,0-.025.981l1.587,3.831a1.208,1.208,0,0,0,.71.674l3.91,1.39v3.559l-3.91,1.391a1.208,1.208,0,0,0-.711.676l-1.587,3.831a1.208,1.208,0,0,0,.025.981l1.781,3.748-3.119,3.119,1.709,1.707,3.721-3.721a1.208,1.208,0,0,0,.237-1.373l-1.917-4.034,1.176-2.839,4.208-1.5a1.208,1.208,0,0,0,.8-1.138V43.108a1.208,1.208,0,0,0-.8-1.138Z" transform="translate(-236.902 -20.377)"/>
    <path id="Path_1317" data-name="Path 1317" d="M295.315,115.321a8.423,8.423,0,0,1-7.84-5.284l-2.239.906a10.87,10.87,0,1,0,4.643-13.491l1.21,2.091a8.454,8.454,0,1,1,4.226,15.779Z" transform="translate(-228.589 -81.504)"/>
    <path id="Path_1318" data-name="Path 1318" d="M338.53,256.454h-4.038v-4.831a3.623,3.623,0,1,0-7.247,0v10.37l-.811-.811a3.77,3.77,0,1,0-5.332,5.332l6.143,6.142v1.915h-1.208a1.208,1.208,0,0,0-1.208,1.208v10.87h2.416v-9.662h14.493v9.662h2.416v-10.87a1.208,1.208,0,0,0-1.208-1.208h-1.208v-1.915l2.476-2.476a8.04,8.04,0,0,0-5.685-13.725Zm3.977,12.017-2.83,2.83a1.208,1.208,0,0,0-.354.854v2.416h-9.662v-2.416a1.208,1.208,0,0,0-.354-.854l-6.5-6.5a1.354,1.354,0,0,1,1.915-1.915l2.873,2.873a1.208,1.208,0,0,0,2.062-.854V251.623a1.208,1.208,0,0,1,2.416,0v6.039a1.208,1.208,0,0,0,1.208,1.208h5.246a5.624,5.624,0,0,1,3.977,9.6Z" transform="translate(-258.104 -210.559)"/>
    <path id="Path_1319" data-name="Path 1319" d="M432,456h2.416v2.416H432Z" transform="translate(-353.196 -387.157)"/>
  </g>
</svg>
