<svg id="pdf" xmlns="http://www.w3.org/2000/svg" width="34.84" height="34.84" viewBox="0 0 34.84 34.84">
  <g id="Group_337" data-name="Group 337" transform="translate(0 0)">
    <g id="Group_336" data-name="Group 336">
      <path id="Path_1287" data-name="Path 1287" d="M293.444,256h-4.355A1.089,1.089,0,0,0,288,257.089v8.71a1.089,1.089,0,0,0,1.089,1.089h4.355a2.178,2.178,0,0,0,2.178-2.177v-6.533A2.178,2.178,0,0,0,293.444,256Zm0,8.71h-3.266v-6.533h3.266Z" transform="translate(-268.402 -238.58)" fill="#fff"/>
      <path id="Path_1288" data-name="Path 1288" d="M422.532,258.177V256h-5.444A1.089,1.089,0,0,0,416,257.089v9.8h2.178v-4.355h4.355v-2.178h-4.355v-2.178Z" transform="translate(-387.692 -238.58)" fill="#fff"/>
      <path id="Path_1289" data-name="Path 1289" d="M2.178,31.574V3.266A1.089,1.089,0,0,1,3.266,2.177H19.6V6.532A2.178,2.178,0,0,0,21.775,8.71H26.13v3.266h2.178V7.621a1.089,1.089,0,0,0-.316-.773L21.459.316A1.089,1.089,0,0,0,20.686,0H3.266A3.266,3.266,0,0,0,0,3.266V31.574A3.266,3.266,0,0,0,3.266,34.84h7.621V32.663H3.266A1.089,1.089,0,0,1,2.178,31.574Z" transform="translate(0 0)" fill="#fff"/>
      <path id="Path_1290" data-name="Path 1290" d="M165.444,256h-4.355A1.089,1.089,0,0,0,160,257.089v9.8h2.178v-3.266h3.266a2.177,2.177,0,0,0,2.178-2.177v-3.266A2.178,2.178,0,0,0,165.444,256Zm0,5.444h-3.266v-3.266h3.266Z" transform="translate(-149.112 -238.58)" fill="#fff"/>
    </g>
  </g>
</svg>
