<?xml version="1.0"?>
<svg xmlns="http://www.w3.org/2000/svg" height="512px" viewBox="0 0 496 496" width="512px" class=""><g><path d="m408.480469 97.921875c8-2.082031 16.640625-2.5625 25.519531-1.203125 28.078125 4.242188 50.480469 27.761719 53.597656 56 4.242188 38.640625-25.839844 71.28125-63.597656 71.28125h-64v-48l-24-16h-8v40c0 13.28125-10.71875 24-24 24s-24-10.71875-24-24v-40h-8l-24 16v48h-48v-32c0-8.800781-3.601562-16.800781-9.359375-22.640625-5.839844-5.757813-13.839844-9.359375-22.640625-9.359375-17.679688 0-32 14.320312-32 32v32h-64c-35.039062 0-63.519531-28.160156-64-63.039062-.402344-27.761719 17.359375-51.761719 43.4375-61.28125 13.042969-4.800782 25.441406-4.480469 36.640625-1.519532-.078125-.71875-.078125-1.441406-.078125-2.160156 0-48.640625 39.359375-88 88-88 29.757812 0 56.160156 14.800781 72 37.519531 15.917969-22.640625 42.238281-37.519531 72-37.519531 48.640625 0 88 39.359375 88 88zm0 0" fill="#e6e9ed" data-original="#E6E9ED" class="" data-old_color="#e6e9ed" style="fill:#000000"/><path d="m304 488c-17.679688 0-32-14.320312-32-32 0-8.078125 3.121094-15.359375 8-20.960938v-171.039062l-32-32v-56l24-16h8v40c0 13.28125 10.71875 24 24 24s24-10.71875 24-24v-40h8l24 16v48l-16 24-16 16v171.039062c4.878906 5.601563 8 12.882813 8 20.960938 0 17.679688-14.320312 32-32 32zm0 0" fill="#b4dd7f" data-original="#B4DD7F" class="" data-old_color="#b4dd7f" style="fill:#000000"/><path d="m184 448 8 16-8 24h-32l-8-24 8-16v-96h32zm0 0" fill="#e6e9ed" data-original="#E6E9ED" class="" data-old_color="#e6e9ed" style="fill:#000000"/><path d="m184 352h-48v-160c0-17.679688 14.320312-32 32-32 8.800781 0 16.800781 3.601562 22.640625 9.359375 5.757813 5.839844 9.359375 13.839844 9.359375 22.640625v160zm0 0" fill="#fcd770" data-original="#FCD770" class="" data-old_color="#fcd770" style="fill:#000000"/><path d="m384 312h16v144h-16zm0 0" data-original="#000000" class="active-path" style="fill:#FFFFFF" data-old_color="#000000"/><path d="m384 280h16v16h-16zm0 0" data-original="#000000" class="active-path" style="fill:#FFFFFF" data-old_color="#000000"/><path d="m416 336h16v16h-16zm0 0" data-original="#000000" class="active-path" style="fill:#FFFFFF" data-old_color="#000000"/><path d="m495.550781 151.832031c-3.503906-31.742187-28.902343-58.238281-60.382812-62.992187-6.625-.992188-13.167969-.9375-19.542969-.199219-3.777344-49.496094-45.175781-88.640625-95.625-88.640625-27.617188 0-53.769531 12.03125-71.898438 32.558594-17.839843-20.375-43.75-32.558594-72.101562-32.558594-50.425781 0-91.808594 39.113281-95.625 88.574219-10.816406-1.316407-21.449219-.140625-31.71875 3.617187-29.992188 10.96875-49.089844 37.992188-48.6484375 68.847656.5195315 36.425782 28.5507815 66.488282 63.9921875 70.480469v88.480469h16v-88h48v128h16v86.113281l-8.640625 17.269531 10.871094 32.617188h43.527343l10.875-32.617188-8.632812-17.269531v-86.113281h16v-168c0-22.054688-17.945312-40-40-40s-40 17.945312-40 40v8h16v-8c0-10.414062 6.710938-19.214844 16-22.527344v94.527344h16v-94.527344c9.289062 3.3125 16 12.113282 16 22.527344v152h-48v-128h-72c-30.441406 0-55.5625-24.753906-55.992188-55.175781-.335937-23.96875 14.632813-45 38.144532-53.601563 8.597656-3.152344 17.261718-3.855468 26.296875-2.40625.535156 5.878906 1.558593 11.703125 3.160156 17.367188l15.398437-4.351563c-2-7.078125-3.007812-14.417969-3.007812-21.832031 0-44.113281 35.886719-80 80-80 33.207031 0 62.472656 19.984375 74.542969 50.910156l14.90625-5.820312c-2.097657-5.363282-4.664063-10.402344-7.570313-15.1875 15.160156-18.75 37.9375-29.902344 62.121094-29.902344 42.863281 0 77.855469 33.902344 79.816406 76.296875-16.144531 5.71875-30.039062 17.015625-38.816406 32.824219l13.992188 7.757812c11.488281-20.703125 34.191406-31.75 57.785156-28.214844 24.429687 3.6875 44.140625 24.265626 46.863281 48.929688 1.789063 16.199219-3.152344 31.734375-13.914063 43.75-10.613281 11.855469-25.824218 18.65625-41.726562 18.65625h-56v-44.28125l-29.578125-19.71875h-18.421875v48c0 8.824219-7.175781 16-16 16s-16-7.175781-16-16v-48h-18.425781l-29.574219 19.71875v63.59375l32 32v164.902344c-5.175781 6.929687-8 15.265625-8 23.785156 0 22.054688 17.945312 40 40 40s40-17.945312 40-40c0-8.519531-2.824219-16.855469-8-23.785156v-164.902344l13.65625-13.65625-11.3125-11.3125-18.34375 18.34375v177.351562l1.976562 2.257813c2.742188 3.152344 6.023438 8.421875 6.023438 15.703125 0 13.230469-10.769531 24-24 24-13.234375 0-24-10.769531-24-24 0-7.28125 3.28125-12.550781 6.023438-15.703125l1.976562-2.257813v-177.351562l-32-32v-48.40625l16-10.664062v30.382812c0 17.648438 14.351562 32 32 32s32-14.351562 32-32v-30.382812l16 10.664062v51.71875h64v88h16v-88.464844c17.480469-1.960937 33.792969-10.269531 45.648438-23.511718 13.640624-15.222657 20.160156-35.703126 17.902343-56.191407zm-312.191406 312.785157-5.128906 15.382812h-20.472657l-5.125-15.382812 7.367188-14.730469v-89.886719h16v89.886719zm0 0" data-original="#000000" class="active-path" style="fill:#FFFFFF" data-old_color="#000000"/><path d="m366.007812 82.28125 15.335938-4.5625c-8.007812-26.917969-33.230469-45.71875-61.34375-45.71875v16c21.085938 0 40.007812 14.097656 46.007812 34.28125zm0 0" data-original="#000000" class="active-path" style="fill:#FFFFFF" data-old_color="#000000"/><path d="m160 312h16v16h-16zm0 0" data-original="#000000" class="active-path" style="fill:#FFFFFF" data-old_color="#000000"/><path d="m160 280h16v16h-16zm0 0" data-original="#000000" class="active-path" style="fill:#FFFFFF" data-old_color="#000000"/><path d="m296 448h16v16h-16zm0 0" data-original="#000000" class="active-path" style="fill:#FFFFFF" data-old_color="#000000"/><path d="m416 368h16v16h-16zm0 0" data-original="#000000" class="active-path" style="fill:#FFFFFF" data-old_color="#000000"/><path d="m96 312h16v144h-16zm0 0" data-original="#000000" class="active-path" style="fill:#FFFFFF" data-old_color="#000000"/><path d="m96 280h16v16h-16zm0 0" data-original="#000000" class="active-path" style="fill:#FFFFFF" data-old_color="#000000"/><path d="m64 336h16v16h-16zm0 0" data-original="#000000" class="active-path" style="fill:#FFFFFF" data-old_color="#000000"/><path d="m64 368h16v16h-16zm0 0" data-original="#000000" class="active-path" style="fill:#FFFFFF" data-old_color="#000000"/></g> </svg>
