<?xml version="1.0" encoding="iso-8859-1"?>
<!-- Generator: Adobe Illustrator 19.0.0, SVG Export Plug-In . SVG Version: 6.00 Build 0)  -->
<svg version="1.1" id="Capa_1" xmlns="http://www.w3.org/2000/svg" xmlns:xlink="http://www.w3.org/1999/xlink" x="0px" y="0px"
	 viewBox="0 0 512 512" style="enable-background:new 0 0 512 512;" xml:space="preserve">
<g>
	<g>
		<path d="M495.937,227.765v-39.529H512v-45.176h-45.176v45.176h14.055v24.471h-29.114v-54.588h-30.118v-96h22.588v13.176h45.177
			V30.118h-45.177v16.941h-37.647v111.059h-90.353v-28.235h-22.588v-22.588h30.118v13.176h45.177V75.294h-45.177v16.941h-45.176
			v52.706h22.588v13.177h-82.824v-15.059h22.588V90.353h-52.706V75.294h-45.176v45.176h45.176v-15.059h37.647V128h-22.588v30.118
			h-90.353V45.176H67.765V30.118H22.588v45.176h45.176V60.235h30.118v97.882H75.294v52.706H30.118v-22.588h15.059v-45.176H0v45.176
			h15.059v37.647h60.235v60.235H15.059v37.647H0v45.177h45.176v-45.177H30.118v-22.588h45.176v52.706h22.588v97.882H67.765v-15.059
			H22.588v45.176h45.176v-15.059h45.176V353.882h90.353V384h22.588v22.588h-37.647v-15.059h-45.176v45.177h45.176v-15.059h52.706
			v-52.706h-22.588v-15.059h82.824v15.059h-22.588v52.706h53.71v15.059h45.177v-45.177h-45.177v15.059h-38.651V384h22.588v-30.118
			h90.353v112.941h46.18v15.059h45.176v-45.176h-45.176v15.059h-31.122v-97.882h30.118v-52.706h29.114v22.588h-14.055v45.177H512
			v-45.177h-16.063v-37.647h-44.173v-58.353H495.937z M481.882,158.118h15.059v15.059h-15.059V158.118z M459.294,45.176h15.059
			v15.059h-15.059V45.176z M338.824,90.353h15.059v15.059h-15.059V90.353z M173.176,105.412h-15.059V90.353h15.059V105.412z
			 M52.706,60.235H37.647V45.176h15.059V60.235z M15.059,158.118h15.059v15.059H15.059V158.118z M30.118,353.882H15.059v-15.059
			h15.059V353.882z M52.706,466.824H37.647v-15.059h15.059V466.824z M173.176,421.647h-15.059v-15.059h15.059V421.647z
			 M347.357,406.588h15.059v15.059h-15.059V406.588z M467.827,451.765h15.059v15.059h-15.059V451.765z M436.706,338.824H90.353
			V173.176h346.353V338.824z M481.882,338.824h15.059v15.059h-15.059V338.824z"/>
	</g>
</g>
<g>
	<g>
		<rect x="105.412" y="248.471" width="15.059" height="15.059"/>
	</g>
</g>
<g>
	<g>
		<rect x="406.588" y="248.471" width="15.059" height="15.059"/>
	</g>
</g>
<g>
	<g>
		<path d="M387.765,248.471c-2.075,0-3.765-1.689-3.765-3.765c0-10.38-8.444-18.823-18.823-18.823
			c-10.38,0-18.824,8.444-18.824,18.823v37.647c0,2.076-1.69,3.765-3.765,3.765s-3.765-1.689-3.765-3.765v-48.941
			c0-12.456-10.134-22.588-22.588-22.588s-22.588,10.133-22.588,22.588v64c0,6.227-5.067,11.294-11.294,11.294
			c-6.227,0-11.294-5.067-11.294-11.294v-82.824c0-14.531-11.821-26.353-26.353-26.353c-14.531,0-26.353,11.822-26.353,26.353v64
			c0,4.152-3.377,7.529-7.529,7.529s-7.529-3.377-7.529-7.529v-48.941c0-10.38-8.444-18.824-18.824-18.824
			c-10.38,0-18.823,8.444-18.823,18.824v37.647c0,2.076-1.689,3.765-3.765,3.765s-3.765-1.689-3.765-3.765
			c0-10.38-8.444-18.824-18.824-18.824h-3.765v15.059h3.765c2.076,0,3.765,1.689,3.765,3.765c0,10.38,8.444,18.824,18.824,18.824
			c10.38,0,18.823-8.444,18.823-18.824v-37.647c0-2.076,1.689-3.765,3.765-3.765s3.765,1.689,3.765,3.765v48.941
			c0,12.456,10.133,22.588,22.588,22.588c12.456,0,22.588-10.133,22.588-22.588v-64c0-6.227,5.067-11.294,11.294-11.294
			c6.227,0,11.294,5.067,11.294,11.294v82.824c0,14.531,11.821,26.353,26.353,26.353c14.532,0,26.353-11.822,26.353-26.353v-64
			c0-4.152,3.377-7.529,7.529-7.529c4.152,0,7.529,3.377,7.529,7.529v48.941c0,10.38,8.444,18.824,18.824,18.824
			s18.824-8.444,18.824-18.824v-37.647c0-2.076,1.69-3.765,3.765-3.765c2.075,0,3.765,1.689,3.765,3.765
			c0,10.38,8.444,18.824,18.823,18.824h3.765v-15.059H387.765z"/>
	</g>
</g>
<g>
	<g>
		<rect x="105.412" y="308.706" width="15.059" height="15.059"/>
	</g>
</g>
<g>
	<g>
		<rect x="105.412" y="188.235" width="15.059" height="15.059"/>
	</g>
</g>
<g>
	<g>
		<rect x="406.588" y="308.706" width="15.059" height="15.059"/>
	</g>
</g>
<g>
	<g>
		<rect x="406.588" y="188.235" width="15.059" height="15.059"/>
	</g>
</g>
<g>
</g>
<g>
</g>
<g>
</g>
<g>
</g>
<g>
</g>
<g>
</g>
<g>
</g>
<g>
</g>
<g>
</g>
<g>
</g>
<g>
</g>
<g>
</g>
<g>
</g>
<g>
</g>
<g>
</g>
</svg>
